PathFileType	4	(X/Y/Z)	Patient4_TMGait_0pt6_02_right_01.trc.trc
DataRate	CameraRate	NumFrames	NumMarkers	Units	OrigDataRate	OrigDataStartFrame	OrigNumFrames
82.352941176471	82.352941176471	4	33	mm	82.352941176471	71	       141
Frame#	Time	Sacral			L.Shoulder			Chest			R.Shoulder			Neck			R.ASIS			L.ASIS			R.Thigh.Superior			R.Thigh.Lateral			R.Thigh.Inferior			R.Patella			L.Thigh.Superior			L.Thigh.Lateral			L.Thigh.Inferior			L.Patella			L.Shank.Superior			L.Shank.Lateral			L.Shank.Inferior			R.Shank.Superior			R.Shank.Lateral			R.Shank.Inferior			R.Heel			R.Midfoot.Superior			R.Midfoot.Lateral			R.Toe			L.Heel			L.Midfoot.Lateral			L.Midfoot.Superior			L.Toe			L.Elbow			L.Wrist			R.Elbow			R.Wrist			
		X1	Y1	Z1	X2	Y2	Z2	X3	Y3	Z3	X4	Y4	Z4	X5	Y5	Z5	X6	Y6	Z6	X7	Y7	Z7	X8	Y8	Z8	X9	Y9	Z9	X10	Y10	Z10	X11	Y11	Z11	X12	Y12	Z12	X13	Y13	Z13	X14	Y14	Z14	X15	Y15	Z15	X16	Y16	Z16	X17	Y17	Z17	X18	Y18	Z18	X19	Y19	Z19	X20	Y20	Z20	X21	Y21	Z21	X22	Y22	Z22	X23	Y23	Z23	X24	Y24	Z24	X25	Y25	Z25	X26	Y26	Z26	X27	Y27	Z27	X28	Y28	Z28	X29	Y29	Z29	X30	Y30	Z30	X31	Y31	Z31	X32	Y32	Z32	X33	Y33	Z33	

71	1.390000000000	715.727679919641	1009.860173576241	540.682070563700	873.790591713155	1436.055058893361	354.099661342445	998.142732534425	1361.019773428008	495.823605622965	942.089237670892	1431.485910644137	680.410728947369	877.713203038091	1489.977459069748	510.440055528657	945.765832810976	932.884788905322	636.801998426079	912.505399896950	957.807830280047	363.619144716519	934.605220596328	720.631995667719	609.705338777866	825.271614430321	631.718211833523	671.049274228569	882.269222212387	563.685824996007	591.154199412518	860.970348680659	481.069299922893	594.713418260126	988.093920049165	778.119823547989	394.087922211723	939.883908901309	646.793779249994	317.292366703373	1045.304203089307	590.270125717841	376.226179426812	1071.659608271201	524.473485883225	373.153121319619	1056.817386455683	451.444860224453	365.024403455042	991.054630332839	319.598265555799	319.253136105535	1081.749355044997	223.526597994048	373.270025750504	822.652098622367	399.163988798246	599.742860320329	739.210033018920	303.075874478347	657.979388032210	771.770428498197	205.296084134482	593.225745363825	624.433571891052	46.846379557616	553.881897977082	794.760781890148	96.352047979062	598.784991013830	703.453344316329	37.237771341448	631.390681554937	912.140085700077	39.359407464840	632.913764313227	1002.521219112403	45.288334493151	418.885618503877	1073.798538754614	48.083215577807	336.503085899708	1145.035077674346	125.639139792518	353.154381626189	1277.555116252161	95.505627505393	323.835600075737	731.642977136456	1107.828163520454	265.948428868115	686.576689894724	852.763454435367	280.369048787602	1085.179355108473	1119.171518834177	782.792424449369	1323.042628596098	1173.316461905324	720.100253755196	
72	1.402142857143	717.573030089392	1008.346639650563	538.234287527059	873.872457288277	1435.203125765228	352.535747001436	998.291688728972	1360.668503982667	494.440330791197	941.424337134032	1430.546582487995	679.091040241106	877.469356594193	1488.996658846430	508.975880067655	947.411782894863	931.694662529690	635.046008132726	914.823623680331	956.838778279584	361.907823967525	935.473920397850	719.244459013017	608.110411668794	825.404364881032	630.922137015487	669.374830338711	881.993280260632	562.375246607499	589.687114459867	859.711980245961	479.567624116555	593.033550125339	989.947153117401	775.679569989063	392.622997529732	939.281324248752	644.124372189541	317.848422934228	1044.420645465137	587.207736656151	376.623034818663	1069.050045452388	520.405988286596	374.538140001375	1053.490662801644	447.098707063621	366.672788698348	985.596046709661	316.075405668715	321.808570316715	1074.565827803992	218.865510330720	376.467428756751	820.334680451328	398.020709852268	598.464375241543	735.658050346718	303.317970707680	657.187411706369	766.479545765097	204.905317332088	592.655732258829	617.181726616706	47.625900398413	554.083664091211	787.701336992995	96.483729695502	598.847525223543	696.233848876303	37.551294179622	631.503178415515	904.878649212902	39.087091702232	632.940064089864	991.586129685860	43.402963728081	422.605618829342	1062.847741821240	44.705804814135	340.132728560802	1136.420220915859	119.598989394345	357.351052652573	1268.067195356899	85.408294931310	327.630073263586	731.665970947382	1107.369467470908	263.937831319130	686.888529287683	852.160684234463	277.671939003862	1085.391623185700	1118.545164511335	781.598515359180	1321.813076723931	1176.972753679761	718.504887975628	
73	1.414285714286	719.506186152831	1006.910816414827	535.636376886256	874.065843484413	1434.422120412623	350.884114760118	998.549482322447	1360.406056353084	492.984242864629	940.806348065268	1429.623145238630	677.734143053619	877.364055162790	1488.107839055757	507.424739500133	949.183056335658	930.541805611037	633.118228375096	917.194603676285	955.994472865290	360.047216909626	936.568978313304	717.930749131663	606.437660204275	825.760468400092	630.192665161573	667.567771599491	882.041855370594	561.113664575296	588.162342955685	858.745434097700	478.083543922852	591.277187899308	991.658173240757	773.117172939394	390.987851078536	938.427203548159	641.543649387607	318.262292089670	1043.237364613395	584.129430458509	377.026417307067	1066.083244749811	516.360597544355	375.942017347598	1049.848565681175	442.862210332224	368.244448191357	979.893292984385	312.679135666061	324.211265766519	1067.060126802636	214.332232960415	379.569383625798	818.264097244681	396.934761869630	597.148449161563	732.261586867524	303.735377229127	656.355180906168	761.321312611093	204.658901740073	592.131378965326	609.982211490260	48.706653469203	554.337556786124	780.757887030428	96.693472690283	598.961059404386	689.056762864253	38.008663374039	631.645501510619	897.640792516511	38.794184074516	632.969988183296	980.210632028111	41.667986371521	425.950992916344	1051.554204054683	41.726327273112	343.468825887032	1127.431973615931	113.827587797423	361.600296477809	1258.231141702828	75.574221690922	331.563099953671	732.424236885399	1106.665783223917	261.670808454583	688.439820573161	851.215090865327	274.485171288355	1084.982724405920	1117.510571750415	780.555267325773	1320.231614297078	1179.289563092145	717.136608491818	
74	1.426428571429	721.454682769127	1005.680834550292	532.922088318810	874.403041632721	1433.794017334242	349.161927487440	998.949200814182	1360.283405073852	491.458305150416	940.310644391433	1428.793236438739	676.338479973473	877.435441748546	1487.390868766614	505.799645023484	951.037600009936	929.499476328367	631.009317051660	919.540909145855	955.356842965494	358.032369615746	937.816989643334	716.769606653944	604.655840547582	826.305367241582	629.603082560368	665.643683328576	882.373904057631	559.979450947528	586.578515905828	858.063439787058	476.677021547932	589.485576990998	993.144874601568	770.549652224956	389.182244175746	937.325812208938	639.192018101986	318.416065407236	1041.738847662594	581.179808136047	377.340502405933	1062.832208166815	512.563004634989	377.210547133208	1046.015040503738	438.969668868266	369.586764247336	974.217612983135	309.586508270026	326.274983301940	1059.582627294309	210.189577266667	382.378511685240	816.429723825514	395.976332418554	595.833494894895	729.007155170190	304.392706705262	655.508479104616	756.312929970397	204.625228410995	591.686982925046	602.859021296520	50.173490017465	554.655104573431	773.970004793602	96.999913523998	599.146389652780	681.937173666170	38.651138431203	631.824301583429	890.432070719577	38.487286209722	633.001472134375	968.971264070821	40.185921339152	428.791374669642	1040.462752082613	39.300067704997	346.355591369302	1118.476293231096	108.664111958828	365.636030649245	1248.495189995063	66.583370248828	335.355150071970	733.947546153137	1105.803709829685	259.143970962633	691.247100665115	850.018565063581	270.826472446312	1083.928186907589	1116.101658103196	779.630297907072	1318.353712597628	1180.204623931119	715.998186332083	
